<?xml version="1.0" encoding="UTF-8"?>
<svg width="240px" height="240px" viewBox="0 0 240 240" version="1.1" xmlns="http://www.w3.org/2000/svg" xmlns:xlink="http://www.w3.org/1999/xlink">
    <!-- Generator: Sketch 49.3 (51167) - http://www.bohemiancoding.com/sketch -->
    <title>Icon / Angry Face</title>
    <desc>Created with Sketch.</desc>
    <defs>
        <polygon id="path-1" points="0 0 239.956835 0 239.956835 239.956835 0 239.956835"></polygon>
    </defs>
    <g id="Icon-/-Angry-Face" stroke="none" stroke-width="1" fill="none" fill-rule="evenodd">
        <g id="Page-1">
            <mask id="mask-2" fill="white">
                <use xlink:href="#path-1"></use>
            </mask>
            <g id="Clip-2"></g>
            <path d="M179.932446,104.19436 C170.07,105.680978 160.547698,109.379396 152.267266,114.938676 C149.848273,116.562993 147.536763,118.340978 145.22741,120.118101 C142.860647,121.939252 140.493885,123.759971 138.127122,125.581122 C137.253885,125.852201 136.533022,124.827022 136.34741,123.93177 C135.592014,120.283856 138.136619,116.838388 140.640647,114.080978 C145.216619,109.040978 150.254029,104.325583 156.146978,100.918101 C162.041223,97.5110504 168.934317,95.4511942 175.71777,96.0214101 C178.405683,96.2475971 181.148417,97.1018417 183.056763,99.0956547 C186.035612,102.207453 183.150863,103.70918 179.932446,104.19436 M151.920647,158.611338 C144.411583,158.611338 138.323525,149.698101 138.323525,138.702993 C138.323525,127.707885 144.411583,118.794647 151.920647,118.794647 C159.430144,118.794647 165.51777,127.707885 165.51777,138.702993 C165.51777,149.698101 159.430144,158.611338 151.920647,158.611338 M150.22295,200.214647 L149.097626,199.325439 C142.597338,193.515367 131.499065,189.690475 118.899065,189.690475 C106.424245,189.690475 95.4213669,193.441986 88.8951799,199.152345 C88.8731655,199.169612 88.8520144,199.191194 88.83,199.20846 C87.2074101,200.578964 84.8751799,198.703856 85.8757554,196.829612 C91.1898561,186.873496 102.347698,171.129324 119.762374,171.129324 C137.796043,171.129324 148.470863,188.011338 153.16554,197.867741 C154.045683,199.715223 151.829137,201.484144 150.22295,200.214647 M74.0069784,138.702993 C74.0069784,127.707885 80.095036,118.794647 87.6041007,118.794647 C95.1135971,118.794647 101.201223,127.707885 101.201223,138.702993 C101.201223,149.698101 95.1135971,158.611338 87.6041007,158.611338 C80.095036,158.611338 74.0069784,149.698101 74.0069784,138.702993 M57.1715827,99.0956547 C59.0803597,97.1018417 61.8230935,96.2475971 64.5105755,96.0214101 C71.2940288,95.4511942 78.1879856,97.5110504 84.0813669,100.918101 C89.9751799,104.325583 95.0121583,109.040978 99.5881295,114.080978 C102.09259,116.838388 104.636331,120.283856 103.880935,123.93177 C103.695755,124.827022 102.97446,125.852201 102.101655,125.581122 C99.7348921,123.759971 97.3681295,121.939252 95.0013669,120.118101 C92.692446,118.340978 90.3805036,116.562993 87.9615108,114.938676 C79.6810791,109.379396 70.1583453,105.680978 60.2963309,104.19436 C57.0779137,103.70918 54.1931655,102.207453 57.1715827,99.0956547 M119.978201,-0.000172661871 C53.7153237,-0.000172661871 -0.000215827338,53.7153669 -0.000215827338,119.978245 C-0.000215827338,186.241554 53.7153237,239.957094 119.978201,239.957094 C186.241511,239.957094 239.95705,186.241554 239.95705,119.978245 C239.95705,53.7153669 186.241511,-0.000172661871 119.978201,-0.000172661871" id="Fill-1" fill="#FFFFFF" mask="url(#mask-2)"></path>
        </g>
    </g>
</svg>