<?xml version="1.0" encoding="UTF-8"?>
<svg width="240px" height="240px" viewBox="0 0 240 240" version="1.1" xmlns="http://www.w3.org/2000/svg" xmlns:xlink="http://www.w3.org/1999/xlink">
    <!-- Generator: Sketch 49.3 (51167) - http://www.bohemiancoding.com/sketch -->
    <title>Icon / Sad Face</title>
    <desc>Created with Sketch.</desc>
    <defs>
        <polygon id="path-1" points="0 0 240 0 240 240 0 240"></polygon>
    </defs>
    <g id="Icon-/-Sad-Face" stroke="none" stroke-width="1" fill="none" fill-rule="evenodd">
        <g id="Page-1">
            <mask id="mask-2" fill="white">
                <use xlink:href="#path-1"></use>
            </mask>
            <g id="Clip-2"></g>
            <path d="M211.121477,105.508715 C205.118249,107.827977 198.142763,107.585775 192.043691,106.053128 C185.726163,104.466083 180.282892,100.696635 174.989432,96.9021462 C170.00984,93.3330215 165.087237,89.2302766 161.79442,84.0641769 C160.901168,82.6623446 159.647851,80.9483703 160.28336,79.4101108 C162.267598,74.609256 166.997649,80.0214427 168.081727,80.9280789 C179.040369,90.0984888 192.690425,97.3338778 207.199196,98.5936705 C208.774152,98.7300976 210.305072,99.1354936 211.741443,99.7956111 C212.990874,100.369814 213.628974,102.069973 212.981808,103.809851 C212.667507,104.653886 211.961195,105.184484 211.121477,105.508715 M198.599535,136.099485 C194.403104,149.408474 181.774093,159.071489 166.842657,159.071489 C151.911222,159.071489 139.282642,149.408474 135.086211,136.099485 C134.462359,134.121291 136.773418,132.519567 138.399319,133.808286 C146.476585,140.211297 156.277754,143.960885 166.842657,143.960885 C177.407992,143.960885 187.209161,140.211297 195.286427,133.808286 C196.912328,132.519567 199.223387,134.121291 198.599535,136.099485 M146.983006,194.151836 C146.983006,197.537043 144.213448,200.306601 140.829104,200.306601 L98.739164,200.306601 C95.3543886,200.306601 92.5848308,197.537043 92.5848308,194.151836 C92.5848308,190.767061 95.3543886,187.997503 98.739164,187.997503 L140.829104,187.997503 C144.213448,187.997503 146.983006,190.767061 146.983006,194.151836 M40.1052705,136.099485 C39.4814185,134.121291 41.7924774,132.519567 43.4183785,133.808286 C51.495644,140.211297 61.2968136,143.960885 71.8617164,143.960885 C82.4270509,143.960885 92.2282205,140.211297 100.305486,133.808286 C101.931387,132.519567 104.242446,134.121291 103.618594,136.099485 C99.4221633,149.408474 86.793152,159.071489 71.8617164,159.071489 C56.9302808,159.071489 44.3017012,149.408474 40.1052705,136.099485 M28.390235,105.940446 C27.5505171,105.616216 26.8437725,105.085618 26.5299037,104.241583 C25.8823064,102.501704 26.5208373,100.801546 27.7707002,100.227343 C29.2066393,99.5672251 30.7379911,99.1618292 32.3120843,99.025402 C46.8212865,97.7656093 60.4709112,90.5302203 71.4299848,81.3598105 C72.513631,80.4531742 77.2441136,75.0409875 79.2279201,79.8418423 C79.8638607,81.3801019 78.610544,83.0940761 77.7172914,84.4959084 C74.4244749,89.6620082 69.5018717,93.7647531 64.52228,97.3338778 C59.2288195,101.128366 53.7851164,104.897815 47.4684521,106.48486 C41.3693805,108.017507 34.3930304,108.259708 28.390235,105.940446 M119.999784,0 C53.7251057,0 0,53.7251057 0,119.999784 C0,186.274894 53.7251057,240 119.999784,240 C186.274894,240 240,186.274894 240,119.999784 C240,53.7251057 186.274894,0 119.999784,0" id="Fill-1" fill="#FFFFFF" mask="url(#mask-2)"></path>
        </g>
    </g>
</svg>