<?xml version="1.0" encoding="UTF-8"?>
<svg width="241px" height="241px" viewBox="0 0 241 241" version="1.1" xmlns="http://www.w3.org/2000/svg" xmlns:xlink="http://www.w3.org/1999/xlink">
    <!-- Generator: Sketch 49.3 (51167) - http://www.bohemiancoding.com/sketch -->
    <title>Icon / Happy Face</title>
    <desc>Created with Sketch.</desc>
    <defs>
        <polygon id="path-1" points="0 0.0431654676 239.956791 0.0431654676 239.956791 239.999957 0 239.999957"></polygon>
    </defs>
    <g id="Icon-/-Happy-Face" stroke="none" stroke-width="1" fill="none" fill-rule="evenodd">
        <g id="Group-3" transform="translate(120.433852, 120.433852) rotate(-360.000000) translate(-120.433852, -120.433852) translate(0.433852, 0.433852)">
            <mask id="mask-2" fill="white">
                <use xlink:href="#path-1"></use>
            </mask>
            <g id="Clip-2"></g>
            <path d="M199.799957,140.365424 C196.817223,171.060388 172.484849,211.316504 118.035928,211.316504 C64.6402446,211.316504 39.4013957,170.149597 37.8949209,139.463266 C37.7654245,136.851755 40.3942014,134.978806 42.8201007,135.950029 C61.027295,143.218662 88.7308921,147.863266 119.762547,147.863266 C149.810029,147.863266 176.736647,143.512187 194.943842,136.635928 C197.443122,135.690604 200.05895,137.706432 199.799957,140.365424 M58.2388058,68.6546331 L106.653194,92.7236978 C107.831612,93.3107482 107.917942,94.8776547 106.804273,95.5726187 L62.2531942,123.444561 C60.5913237,124.484849 58.6661439,122.529453 59.8920432,121.044561 L78.7812518,98.1452806 C79.2949209,97.5236978 79.2690216,96.6431223 78.7251367,96.0474388 L56.0848489,71.2013957 C54.8201007,69.8157842 56.5208201,67.7999568 58.2388058,68.6546331 M132.556791,92.7236978 L180.966863,68.6546331 C182.684849,67.7999568 184.385568,69.8157842 183.12082,71.2013957 L160.480532,96.0474388 C159.936647,96.6431223 159.910748,97.5236978 160.424417,98.1452806 L179.313626,121.044561 C180.539525,122.529453 178.614345,124.484849 176.952475,123.444561 L132.401396,95.5726187 C131.287727,94.8776547 131.374058,93.3107482 132.556791,92.7236978 M119.978374,0.0431223022 C53.7150647,0.0431223022 -4.31654676e-05,53.7582302 -4.31654676e-05,120.02154 C-4.31654676e-05,186.284849 53.7150647,239.999957 119.978374,239.999957 C186.241683,239.999957 239.956791,186.284849 239.956791,120.02154 C239.956791,53.7582302 186.241683,0.0431223022 119.978374,0.0431223022" id="Fill-1" fill="#FFFFFF" mask="url(#mask-2)"></path>
            <path d="M193.96131,147.218061 C192.914931,153.151094 190.969186,158.80513 188.258114,164.05375 C187.985709,164.581228 187.531702,164.98708 186.982569,165.195892 C181.071827,167.476252 173.777443,169.446228 165.453976,171.016018 C152.062924,173.535269 136.004037,175 118.743113,175 C101.265995,175 85.0255057,173.496035 71.5350037,170.919678 C63.1510025,169.319807 55.8349995,167.305802 49.9415526,164.977926 C49.3967439,164.764319 48.9513844,164.358903 48.6833039,163.835784 C45.9808796,158.55229 44.0524296,152.859019 43.0363181,146.882393 C42.7120272,144.973447 44.6188578,143.434172 46.3873242,144.201412 C50.6722882,146.058918 55.9647159,147.741179 62.0700328,149.192832 C77.0998358,152.771833 97.0285934,154.947133 118.890125,154.947133 C140.379803,154.947133 160.005889,152.845941 174.945323,149.371564 C181.011293,147.96394 186.308044,146.333555 190.640571,144.520078 C192.413361,143.782917 194.294681,145.313474 193.96131,147.218061" id="Fill-4" fill-opacity="0.5" fill="#FFFFFF" mask="url(#mask-2)"></path>
        </g>
    </g>
</svg>